<?xml version="1.0" encoding="utf-8"?>
<!-- Generator: Adobe Illustrator 15.1.0, SVG Export Plug-In . SVG Version: 6.00 Build 0)  -->
<!DOCTYPE svg PUBLIC "-//W3C//DTD SVG 1.1//EN" "http://www.w3.org/Graphics/SVG/1.1/DTD/svg11.dtd">
<svg version="1.1" id="レイヤー_1" xmlns="http://www.w3.org/2000/svg" xmlns:xlink="http://www.w3.org/1999/xlink" x="0px"
	 y="0px" width="791.906px" height="94.941px" viewBox="0 0 791.906 94.941" enable-background="new 0 0 791.906 94.941"
	 xml:space="preserve">
<g>
	<path d="M0.55,26.234C0.183,25.801,0,25.319,0,24.785c0-0.6,0.183-1.099,0.55-1.499c0.365-0.4,0.882-0.565,1.549-0.5
		c6.396,0.399,13.692,0.6,21.887,0.6c1.332,0,2.448-0.283,3.348-0.85c0.899-0.565,1.849-1.349,2.848-2.349
		c1.465-1.465,2.964-2.199,4.498-2.199c0.865,0,1.731,0.267,2.598,0.8c1,0.667,1.932,1.466,2.798,2.398
		c0.732,0.867,1.099,1.699,1.099,2.499c0,0.734-0.3,1.333-0.899,1.799c-0.6,0.467-1.466,0.699-2.598,0.699
		c-17.457,0-29.316,0.2-35.578,0.6C1.432,26.851,0.915,26.668,0.55,26.234z M26.983,86.197c-0.6-0.7-1.466-1.05-2.599-1.05H13.592
		c-1.134,0-1.999,0.25-2.599,0.749c-0.6,0.5-0.899,1.216-0.899,2.149c0,1.199-0.467,2.182-1.399,2.948
		c-0.934,0.765-1.933,1.148-2.998,1.148c-0.667,0-1.217-0.199-1.649-0.6c-0.434-0.399-0.65-0.966-0.65-1.698l0.1-4.098
		c0.065-0.665,0.1-1.632,0.1-2.898l0.1-24.384c0-0.732,0.5-1.1,1.499-1.1c1.199,0,2.182,0.167,2.948,0.5
		c0.765,0.334,1.549,0.767,2.349,1.3c0.799,0.533,1.365,0.799,1.699,0.799h12.093c0.6,0,1.182-0.149,1.749-0.449
		c0.565-0.3,1.083-0.65,1.549-1.049c0.399-0.333,0.832-0.65,1.299-0.95c0.465-0.3,0.932-0.45,1.399-0.45
		c1.065,0,2.148,0.334,3.248,1c1.099,0.667,2.031,1.434,2.798,2.299c0.765,0.866,1.149,1.565,1.149,2.099
		c0,0.467-0.1,0.816-0.3,1.049c-0.2,0.234-0.5,0.518-0.899,0.85c-0.534,0.399-0.949,0.834-1.249,1.299
		c-0.3,0.468-0.45,1.167-0.45,2.1v20.287c0,1.265-0.467,2.264-1.399,2.998c-0.934,0.732-1.966,1.099-3.098,1.099
		c-0.934,0-1.534-0.284-1.799-0.849c-0.267-0.567-0.4-1.316-0.4-2.249C27.883,87.845,27.583,86.896,26.983,86.197z M4.847,38.876
		c-0.367-0.4-0.55-0.899-0.55-1.499s0.183-1.1,0.55-1.499c0.365-0.4,0.882-0.565,1.549-0.5c2.199,0.267,4.38,0.434,6.546,0.5
		c2.165,0.067,4.913,0.1,8.245,0.1c1,0,2.031-0.2,3.098-0.6c1.065-0.399,1.932-0.932,2.598-1.599
		c1.465-1.465,2.764-2.199,3.897-2.199c0.6,0,1.332,0.267,2.199,0.799c1,0.667,1.932,1.466,2.798,2.398
		c0.532,0.667,0.799,1.234,0.799,1.699c0,0.667-0.367,1.216-1.099,1.649c-0.734,0.434-1.766,0.649-3.098,0.649
		c-4.064,0-8.979,0.05-14.741,0.15c-5.764,0.1-9.511,0.25-11.243,0.45C5.729,39.443,5.212,39.276,4.847,38.876z M4.847,49.869
		c-0.367-0.4-0.55-0.899-0.55-1.499s0.183-1.1,0.55-1.499c0.365-0.4,0.882-0.565,1.549-0.5c2.199,0.267,4.38,0.434,6.546,0.5
		c2.165,0.067,4.913,0.1,8.245,0.1c1,0,2.031-0.2,3.098-0.6c1.065-0.399,1.932-0.932,2.598-1.599
		c1.465-1.464,2.764-2.198,3.897-2.198c0.6,0,1.332,0.267,2.199,0.799c1,0.667,1.932,1.466,2.798,2.398
		c0.532,0.667,0.799,1.234,0.799,1.699c0,0.667-0.367,1.216-1.099,1.649c-0.734,0.434-1.766,0.649-3.098,0.649
		c-4.064,0-8.979,0.05-14.741,0.15c-5.764,0.1-9.511,0.25-11.243,0.45C5.729,50.436,5.212,50.269,4.847,49.869z M5.847,12.292
		c-0.367-0.4-0.55-0.899-0.55-1.499s0.183-1.099,0.55-1.499c0.365-0.4,0.882-0.565,1.549-0.5c1.665,0.267,3.381,0.434,5.147,0.5
		c1.764,0.067,4.647,0.1,8.645,0.1c0.6,0,1.365-0.2,2.298-0.6c0.932-0.4,1.732-0.933,2.398-1.599
		c1.465-1.465,2.764-2.199,3.898-2.199c0.6,0,1.332,0.267,2.198,0.799c1,0.667,1.932,1.466,2.798,2.399
		c0.533,0.667,0.8,1.233,0.8,1.699c0,0.667-0.367,1.216-1.1,1.649c-0.734,0.434-1.766,0.649-3.098,0.649
		c-3.932,0-8.594,0.05-13.991,0.15c-5.396,0.1-8.729,0.25-9.994,0.45C6.729,12.859,6.212,12.692,5.847,12.292z M10.094,78.851
		c0,1.134,0.315,2.016,0.95,2.648c0.632,0.634,1.481,0.916,2.548,0.85l11.093,0.1c1.132-0.065,1.999-0.399,2.599-0.999
		s0.899-1.433,0.899-2.499V66.159c0-1.132-0.3-1.999-0.899-2.599s-1.466-0.899-2.599-0.899H13.592c-1.067,0-1.916,0.3-2.548,0.899
		c-0.634,0.6-0.95,1.467-0.95,2.599V78.851z M43.573,43.473c0-0.732,0.5-1.1,1.499-1.1c0.8,0,1.599,0.217,2.399,0.65
		c0.799,0.434,1.432,1.049,1.898,1.849c0.533,0.734,1.1,1.1,1.699,1.1h20.487c1.132,0,1.999-0.315,2.599-0.95
		c0.6-0.632,0.899-1.482,0.899-2.548l0.1-24.785c0.065-1.132-0.217-1.999-0.85-2.598c-0.634-0.6-1.516-0.899-2.648-0.899H54.666
		c-2.666,0-6.496,0.167-11.493,0.5c-0.667,0.067-1.184-0.115-1.549-0.55c-0.367-0.432-0.549-0.915-0.549-1.449
		c0-0.6,0.183-1.1,0.549-1.499c0.366-0.4,0.882-0.565,1.549-0.5l2.398,0.2c4.197,0.267,7.428,0.399,9.694,0.399h15.89
		c0.6-0.065,1.149-0.25,1.649-0.549s1.049-0.715,1.649-1.25c1-0.999,1.832-1.499,2.499-1.499c1.065-0.065,2.181,0.185,3.348,0.75
		c1.165,0.567,2.149,1.267,2.948,2.099c0.799,0.834,1.232,1.517,1.299,2.049c0.065,0.467,0,0.817-0.2,1.049
		c-0.2,0.234-0.534,0.55-0.999,0.95c-0.6,0.534-1.049,1.016-1.349,1.449c-0.3,0.434-0.45,1.117-0.45,2.049l0.1,29.582
		c0.066,1.134-0.334,2.099-1.199,2.898c-0.867,0.8-1.799,1.2-2.798,1.2c-1.266,0-2.099-0.6-2.498-1.799
		c-0.334-0.932-0.867-1.399-1.599-1.399l-20.087-0.1c-1.066,0-1.916,0.3-2.548,0.899c-0.634,0.6-0.95,1.466-0.95,2.599v23.885
		c0,4.597,0.8,7.329,2.398,8.194c1,0.534,2.749,0.934,5.247,1.199c2.499,0.268,5.247,0.4,8.245,0.4c2.731,0,5.297-0.101,7.695-0.3
		c2.398-0.2,4.097-0.466,5.097-0.8c1.332-0.466,2.264-1.1,2.798-1.898c0.533-0.8,0.865-2.032,1-3.698
		c0.133-1.531,0.232-3.298,0.3-5.297c0.065-1.998,0.1-3.63,0.1-4.896c0-0.933,0.133-1.649,0.4-2.148c0.266-0.5,0.6-0.75,1-0.75
		s0.732,0.268,1,0.8c0.265,0.534,0.399,1.267,0.399,2.198l-0.1,3.598c0,2.799,0.265,4.497,0.799,5.097
		c0.465,0.6,0.865,1.417,1.199,2.449c0.333,1.033,0.5,2.183,0.5,3.447c0,2.134-1.266,3.863-3.797,5.197
		c-1.733,0.932-4.248,1.614-7.545,2.049c-3.298,0.433-6.88,0.649-10.743,0.649c-3.732,0-7.163-0.2-10.293-0.6
		c-3.133-0.4-5.364-0.967-6.696-1.699c-2.199-1.134-3.648-2.548-4.348-4.247c-0.699-1.699-1.049-3.881-1.049-6.546V43.473z"/>
	<path d="M106.733,28.232c3.998-7.095,7.028-14.574,9.094-22.436c0.4-1.665,1.199-2.914,2.398-3.748
		c1.199-0.832,2.499-1.249,3.898-1.249c0.665,0,1.299,0.1,1.898,0.3c1,0.399,1.765,0.867,2.299,1.399
		c0.532,0.534,0.799,1.066,0.799,1.599c0,0.4-0.134,0.649-0.4,0.75c-0.267,0.1-0.699,0.15-1.299,0.15c-0.534,0-0.984,0.2-1.349,0.6
		c-0.367,0.4-0.55,0.867-0.55,1.399c0,0.734,0.333,1.434,1,2.099c6.329,5.863,10.693,11.127,13.092,15.79
		c0.6,1.266,0.899,2.398,0.899,3.398c0,1.133-0.284,2.016-0.85,2.648c-0.567,0.634-1.284,0.95-2.148,0.95
		c-1.733,0-3.065-1.132-3.998-3.398c-2.266-5.529-5.197-10.693-8.794-15.49c-0.4-0.533-0.867-0.8-1.399-0.8
		c-0.6,0-1.034,0.367-1.299,1.1c-3.997,10.394-11.427,21.421-22.286,33.079c-0.6,0.667-1.2,1-1.799,1
		c-0.267,0-0.517-0.116-0.75-0.35c-0.234-0.233-0.35-0.483-0.35-0.75c0-0.6,0.3-1.232,0.899-1.899
		C99.071,40.709,102.736,35.328,106.733,28.232z M98.489,91.542c-0.7-1.133-1.049-2.232-1.049-3.298
		c0-0.999,0.333-1.849,0.999-2.548c0.666-0.7,1.632-1.082,2.898-1.149c3.131-0.2,6.795-0.8,10.993-1.799
		c1.999-0.532,2.998-1.832,2.998-3.897V56.265c0-1.065-0.284-1.899-0.85-2.499c-0.567-0.6-1.383-0.899-2.448-0.899
		c-1.599,0-3.133,0.05-4.597,0.15c-1.466,0.1-2.433,0.15-2.898,0.15c-0.6,0-1.049-0.2-1.349-0.6s-0.45-0.899-0.45-1.499
		c0-0.533,0.183-1,0.55-1.399c0.365-0.399,0.882-0.565,1.549-0.5c1.799,0.267,4.13,0.467,6.996,0.6c1.132,0,1.999-0.3,2.599-0.899
		s0.899-1.465,0.899-2.598v-2.898c0-1.132-0.3-1.999-0.899-2.598s-1.434-0.899-2.499-0.899c-1.199,0-2.116,0.034-2.749,0.1
		c-0.634,0.067-1.083,0.1-1.349,0.1c-0.534,0-0.966-0.2-1.299-0.6c-0.334-0.4-0.5-0.865-0.5-1.399c0-0.532,0.183-0.999,0.55-1.399
		c0.365-0.4,0.882-0.565,1.549-0.5c2.931,0.334,5.796,0.5,8.595,0.5c2.464,0,4.197-0.116,5.197-0.35
		c1-0.233,1.899-0.683,2.698-1.349c1.399-1.199,2.631-1.799,3.698-1.799c1.199,0,2.464,0.767,3.798,2.298
		c0.6,0.6,0.899,1.233,0.899,1.899c0,0.6-0.317,1.083-0.95,1.449c-0.634,0.367-1.583,0.584-2.848,0.65l-3.998,0.1
		c-1.133,0.067-1.999,0.399-2.598,0.999s-0.899,1.434-0.899,2.499v2.499c0,1.199,0.265,2.148,0.799,2.848
		c0.533,0.7,1.232,0.917,2.099,0.649c0.8-0.2,1.565-0.665,2.299-1.399c1.399-1.199,2.664-1.799,3.797-1.799
		c1.532,0,3.098,0.899,4.697,2.698c0.532,0.667,0.799,1.233,0.799,1.699c0,0.6-0.35,1.117-1.049,1.549
		c-0.699,0.434-1.716,0.684-3.048,0.75l-6.896,0.1c-1.066,0-1.916,0.3-2.548,0.899c-0.634,0.6-0.949,1.466-0.949,2.598v19.088
		c0,0.934,0.215,1.683,0.649,2.248c0.433,0.567,1.015,0.85,1.749,0.85c0.6,0,1.165-0.133,1.699-0.399
		c1.732-0.8,2.731-1.232,2.999-1.3c2.864-1.265,4.729-2.198,5.596-2.798c0.465-0.266,0.865-0.399,1.199-0.399
		c0.6,0,0.899,0.334,0.899,0.999c0,0.6-0.334,1.134-0.999,1.599c-4.132,2.933-8.995,5.714-14.591,8.345
		c-5.596,2.632-10.96,4.613-16.09,5.946c-1.666,0.4-2.298,1.3-1.899,2.699c0.066,0.132,0.1,0.332,0.1,0.6
		c0,0.6-0.234,0.899-0.7,0.899c-0.334,0-0.734-0.135-1.199-0.4C100.07,93.542,99.188,92.675,98.489,91.542z M103.236,64.16
		c0-0.465,0.132-0.814,0.399-1.049c0.266-0.232,0.666-0.216,1.199,0.05c1.865,0.999,3.531,2.516,4.997,4.547
		c1.465,2.033,2.364,4.215,2.698,6.546c0.133,1-0.067,1.816-0.6,2.449c-0.534,0.634-1.199,0.949-1.999,0.949
		c-1.399,0-2.399-0.766-2.999-2.299l-1.299-4.297c-0.267-1.065-0.567-2.114-0.899-3.148c-0.334-1.032-0.734-1.914-1.199-2.648
		C103.335,64.927,103.236,64.56,103.236,64.16z M127.32,61.662c0.266-1.065,0.732-1.864,1.399-2.398
		c0.665-0.533,1.465-0.799,2.398-0.799c1.132,0,2.164,0.399,3.098,1.199c0.932,0.8,1.532,1.866,1.799,3.198v0.399
		c0,0.734-0.234,1.1-0.7,1.1c-0.267,0-0.634-0.2-1.099-0.6c-0.134-0.133-0.3-0.2-0.5-0.2c-0.534,0-1.034,0.4-1.499,1.199
		c-0.934,1.467-2.898,4.332-5.896,8.595c-0.467,0.667-1,1-1.599,1c-0.334,0-0.6-0.116-0.799-0.35c-0.2-0.233-0.3-0.516-0.3-0.85
		c0-0.333,0.1-0.7,0.3-1.1C125.055,69.457,126.187,65.994,127.32,61.662z M144.66,73.104c2.964-2.099,6.979-5.246,12.042-9.443
		c1.399-1.133,2.099-2.564,2.099-4.298V40.675c0-1.132-0.3-1.999-0.899-2.599s-1.466-0.899-2.598-0.899h-4.897
		c-2.266,0-5.963,0.167-11.093,0.5l-1.999,0.1c-0.667,0.067-1.184-0.115-1.549-0.549c-0.367-0.433-0.549-0.915-0.549-1.449
		c0-0.6,0.183-1.099,0.549-1.499c0.366-0.4,0.882-0.565,1.549-0.5c6.396,0.399,10.759,0.6,13.092,0.6h13.292
		c1.132,0,1.999-0.315,2.599-0.95c0.6-0.632,0.899-1.482,0.899-2.548v-4.297c0-1.132-0.3-1.999-0.899-2.598
		s-1.466-0.899-2.599-0.899l-5.696-0.1c-2.666,0-5.896,0.134-9.694,0.4l-2.399,0.2c-0.667,0.067-1.184-0.116-1.549-0.55
		c-0.367-0.433-0.55-0.915-0.55-1.449c0-0.6,0.183-1.1,0.55-1.5c0.365-0.399,0.882-0.565,1.549-0.5l2.399,0.2
		c4.197,0.267,7.428,0.4,9.694,0.4h5.696c1.132,0,1.999-0.315,2.599-0.949c0.6-0.632,0.899-1.482,0.899-2.548v-4.297
		c0-1.132-0.3-1.999-0.899-2.599s-1.466-0.899-2.599-0.899h-8.495c-2.666,0-5.896,0.134-9.694,0.4l-2.398,0.2
		c-0.667,0.067-1.184-0.115-1.549-0.549c-0.367-0.433-0.549-0.915-0.549-1.449c0-0.6,0.183-1.1,0.549-1.499
		c0.366-0.4,0.882-0.565,1.549-0.5l2.398,0.2c4.197,0.267,7.428,0.399,9.694,0.399h7.995c0.6-0.065,1.149-0.25,1.649-0.549
		c0.5-0.3,1.049-0.715,1.649-1.25c1-0.999,1.832-1.499,2.499-1.499c1.065-0.065,2.181,0.185,3.348,0.75
		c1.165,0.567,2.149,1.267,2.948,2.099c0.799,0.834,1.232,1.517,1.299,2.049c0.065,0.467,0,0.817-0.2,1.049
		c-0.2,0.234-0.534,0.55-0.999,0.95c-0.6,0.534-1.049,1.016-1.349,1.449c-0.3,0.434-0.45,1.117-0.45,2.049v17.289
		c0,0.934,0.232,1.733,0.699,2.398c0.465,0.667,1.065,1,1.799,1c0.4,0,0.833-0.1,1.299-0.3c0.732-0.399,1.699-1.199,2.898-2.398
		c1.464-1.465,2.931-2.199,4.397-2.199c1.799,0,3.631,1.067,5.497,3.198c0.732,0.867,1.1,1.699,1.1,2.499
		c0,0.734-0.3,1.333-0.899,1.799c-0.6,0.467-1.466,0.699-2.599,0.699l-18.788,0.1c-1.134,0-1.983,0.317-2.548,0.949
		c-0.567,0.634-0.817,1.549-0.75,2.749c0.465,3.198,0.899,5.914,1.299,8.145c0.4,2.233,1,4.582,1.799,7.045c0.2,0.667,0.565,1,1.1,1
		c0.333,0,0.665-0.2,0.999-0.6c2.464-2.599,5.297-6.229,8.495-10.893c1.065-1.532,2.431-2.299,4.097-2.299
		c1.465,0,2.798,0.517,3.998,1.549c1.199,1.034,1.999,2.416,2.398,4.147v0.4c0,1-0.467,1.499-1.399,1.499
		c-0.334,0-0.6-0.065-0.8-0.2c-0.399-0.266-0.734-0.4-0.999-0.4c-0.6,0-1.499,0.5-2.699,1.499
		c-4.131,3.333-7.595,5.931-10.393,7.795c-1.267,0.867-1.899,1.834-1.899,2.898c0,0.534,0.166,1.134,0.5,1.799
		c4.197,7.995,10.459,14.391,18.789,19.188c0.732,0.399,1.099,0.866,1.099,1.398c0,0.334-0.184,0.634-0.55,0.899
		c-0.367,0.266-0.849,0.365-1.449,0.3c-1.999-0.066-3.498,0.116-4.497,0.55c-0.999,0.433-1.733,1.115-2.199,2.049
		c-0.534,1.132-1.133,1.699-1.799,1.699c-0.2,0-0.5-0.135-0.899-0.4c-2.933-2.665-5.596-6.179-7.995-10.543
		c-2.399-4.363-4.397-9.377-5.997-15.041c-0.2-0.6-0.5-0.899-0.899-0.899c-0.399,0-0.6,0.335-0.6,1v22.586
		c0,2.664-0.949,4.63-2.848,5.896c-1.899,1.265-4.047,1.898-6.446,1.898c-0.734,0-1.199-0.117-1.399-0.35
		c-0.2-0.234-0.334-0.649-0.399-1.249c-0.067-0.8-0.284-1.517-0.65-2.149c-0.367-0.634-1.116-1.283-2.249-1.948
		c-0.867-0.534-1.599-0.949-2.199-1.249s-1.099-0.55-1.499-0.75c-0.934-0.467-1.933-1.034-2.998-1.699
		c-1.134-0.799-1.699-1.599-1.699-2.398c0-0.465,0.183-0.814,0.549-1.049c0.366-0.233,0.882-0.315,1.549-0.25
		c0.732,0.067,1.799,0.467,3.198,1.199c2.531,1.267,4.463,1.898,5.796,1.898c1.665,0,2.898-0.365,3.698-1.099
		c0.799-0.732,1.199-1.932,1.199-3.598V68.757c0-0.865-0.267-1.299-0.799-1.299c-0.334,0-0.7,0.199-1.1,0.6
		c-3.865,3.932-7.229,7.195-10.094,9.793c-2.865,2.599-5.63,4.697-8.294,6.297c-1,0.733-1.299,1.398-0.899,1.998
		c0.265,0.333,0.399,0.7,0.399,1.1s-0.134,0.699-0.399,0.899c-0.267,0.2-0.6,0.266-1,0.2c-1.333-0.334-2.483-1.017-3.448-2.049
		c-0.967-1.032-1.449-2.182-1.449-3.448c0-1.864,1.132-3.298,3.398-4.297C138.514,77.019,141.694,75.204,144.66,73.104z
		 M139.613,45.472c0-0.465,0.183-0.815,0.55-1.049c0.365-0.232,0.85-0.283,1.449-0.15c3.198,0.934,6.229,2.433,9.094,4.497
		c2.864,2.066,4.53,4.432,4.997,7.096c0.2,1.267-0.1,2.383-0.899,3.348c-0.799,0.967-1.733,1.449-2.798,1.449
		c-1.066,0-1.898-0.533-2.498-1.599c-1.599-2.931-3.098-5.38-4.498-7.346c-1.399-1.964-2.865-3.48-4.397-4.547
		C139.945,46.706,139.613,46.139,139.613,45.472z"/>
	<path d="M226.508,84.248c-5.631-2.998-8.212-8.395-7.745-16.189c0.333-7.129,5.43-13.025,15.291-17.689
		c1.265-0.6,1.899-1.399,1.899-2.398c0-0.6-0.2-1.299-0.6-2.099c-1.599-2.864-2.398-6.629-2.398-11.293
		c0-3.131,0.166-6.362,0.5-9.694c0.065-0.932,0.133-1.982,0.2-3.148c0.066-1.165,0.1-2.415,0.1-3.748c0-2.131-0.2-3.863-0.6-5.197
		c-0.4-1.332-1.134-2.331-2.199-2.998c-0.867-0.6-1.299-1.199-1.299-1.799c0-0.333,0.115-0.6,0.35-0.799
		c0.232-0.2,0.583-0.3,1.049-0.3c0.465,0,1,0.1,1.599,0.3c2.798,0.867,4.83,1.866,6.096,2.998c1.999,1.799,2.998,3.732,2.998,5.796
		c0,1-0.3,2.633-0.899,4.897c-0.867,3.598-1.366,6.63-1.499,9.094l-0.1,6.696c0,3.532,0.233,6.164,0.7,7.895
		c0.399,1.534,1.365,2.299,2.898,2.299c0.266,0,0.732-0.066,1.399-0.2c6.729-2.131,11.125-2.998,13.191-2.598
		c1.332,0.267,2.349,0.799,3.048,1.599c0.7,0.799,1.049,1.666,1.049,2.598c0,1.134-0.5,2.099-1.499,2.898
		c-1,0.8-2.398,1.167-4.197,1.1c-0.6-0.065-1.599-0.1-2.999-0.1c-4.731,0-9.478,0.567-14.241,1.699
		c-4.764,1.133-8.745,2.982-11.943,5.546c-3.198,2.566-4.797,5.881-4.797,9.944c0,4.332,1.799,7.595,5.396,9.794
		c3.598,2.198,8.128,3.298,13.592,3.298c2.798,0,5.629-0.3,8.495-0.899c2.864-0.6,5.562-1.432,8.095-2.499
		c1-0.465,2.064-0.699,3.198-0.699c1.532,0,2.781,0.484,3.748,1.449c0.965,0.967,1.449,2.049,1.449,3.248
		c0,0.934-0.334,1.783-1,2.548c-0.667,0.766-1.633,1.282-2.898,1.55c-4.932,1.064-10.294,1.599-16.09,1.599
		C238.584,88.745,232.138,87.246,226.508,84.248z"/>
	<path d="M305.559,78.501c1.899-3.431,3.381-8.178,4.447-14.241c0.065-0.933,0.283-1.632,0.649-2.099
		c0.366-0.466,0.782-0.7,1.25-0.7c0.532,0,0.982,0.335,1.349,1c0.365,0.666,0.515,1.599,0.45,2.798
		c-0.267,4.397-1.034,8.729-2.299,12.992c-1.266,4.265-2.848,7.745-4.747,10.443c-1.898,2.698-3.848,4.048-5.846,4.048
		c-0.867,0-1.566-0.285-2.099-0.85c-0.534-0.567-0.799-1.25-0.799-2.049c0-1.066,0.432-2.033,1.299-2.898
		C301.544,84.748,303.66,81.933,305.559,78.501z M304.709,22.386l-2.398,0.2c-0.667,0.067-1.184-0.115-1.549-0.549
		c-0.367-0.433-0.55-0.915-0.55-1.449c0-0.6,0.183-1.1,0.55-1.499c0.365-0.4,0.882-0.565,1.549-0.5l2.398,0.2
		c4.197,0.267,7.428,0.399,9.694,0.399h21.187c1.132,0,1.999-0.315,2.598-0.949c0.6-0.632,0.899-1.482,0.899-2.548V7.096
		c0-1.665,0.483-2.914,1.449-3.748c0.965-0.833,2.182-1.249,3.648-1.249c1.199,0,2.198,0.234,2.998,0.699
		c0.799,0.467,1.199,0.934,1.199,1.399c0,0.534-0.534,0.833-1.599,0.899c-0.4,0.067-0.717,0.3-0.949,0.699
		c-0.234,0.4-0.35,0.834-0.35,1.299v8.595c0,1.066,0.315,1.916,0.95,2.548c0.632,0.634,1.482,0.949,2.548,0.949h22.886
		c1.332,0,2.448-0.282,3.348-0.849c0.899-0.565,1.849-1.349,2.849-2.349c1.464-1.465,2.963-2.199,4.497-2.199
		c0.865,0,1.731,0.267,2.598,0.8c1,0.667,1.932,1.466,2.798,2.398c0.732,0.867,1.099,1.699,1.099,2.498
		c0,0.734-0.3,1.334-0.899,1.799c-0.6,0.467-1.466,0.699-2.598,0.699h-51.868c-1.066,0-1.916,0.3-2.548,0.899
		c-0.634,0.6-0.949,1.466-0.949,2.599v10.193c0,2.398,0.432,4.248,1.299,5.547c0.865,1.299,2.231,2.216,4.098,2.748
		c1.532,0.467,3.73,0.85,6.596,1.149c2.864,0.3,5.829,0.45,8.895,0.45c3.331,0,6.396-0.183,9.194-0.55
		c2.798-0.365,4.93-0.915,6.396-1.649c1.731-0.799,3.331-1.199,4.797-1.199c1,0,1.999,0.2,2.998,0.6
		c0.865,0.4,1.565,0.899,2.099,1.499c0.533,0.6,0.8,1.199,0.8,1.799c0,1.066-0.7,1.866-2.099,2.398
		c-1.999,0.8-5.047,1.417-9.145,1.849c-4.097,0.434-8.544,0.649-13.342,0.649c-4.597,0-8.861-0.2-12.792-0.6
		c-3.932-0.4-6.863-1-8.794-1.799c-2.798-1.132-4.731-2.514-5.796-4.147c-1.066-1.632-1.599-3.713-1.599-6.246V25.484
		c0-1.132-0.3-1.999-0.899-2.599s-1.466-0.899-2.599-0.899h-5.896C311.738,21.986,308.507,22.121,304.709,22.386z M320.45,54.816
		c0.433-0.5,1.082-0.75,1.949-0.75c0.6,0,1.299,0.1,2.099,0.3c1.132,0.2,1.982,0.517,2.548,0.949c0.565,0.434,0.85,0.85,0.85,1.25
		c0,0.134-0.067,0.284-0.2,0.45c-0.134,0.167-0.334,0.284-0.6,0.35c-0.4,0.134-0.65,0.384-0.75,0.75
		c-0.1,0.367-0.167,0.817-0.2,1.35c-0.034,0.533-0.05,0.899-0.05,1.099c-0.067,0.534-0.1,1.3-0.1,2.299
		c0,4.064,0.815,7.862,2.449,11.393c1.632,3.532,3.998,6.464,7.096,8.795c3.098,2.333,6.746,3.73,10.943,4.197
		c3.131,0.333,5.696,0.5,7.695,0.5c4.997,0,8.777-0.667,11.343-1.999c2.564-1.332,3.848-3.031,3.848-5.097
		c0-1.6-0.35-3.448-1.049-5.547s-1.117-3.313-1.249-3.647l-0.1-0.399c0-0.333,0.133-0.6,0.4-0.8c0.265-0.2,0.565-0.3,0.899-0.3
		c0.665,0,1.199,0.334,1.599,0.999c1.332,4.664,2.798,8.162,4.397,10.494c0.266,0.334,0.832,0.767,1.699,1.299
		c0.8,0.467,1.415,0.967,1.849,1.499c0.433,0.534,0.649,1.366,0.649,2.498c0,1.133-0.984,2.199-2.948,3.198
		c-1.966,0.999-4.647,1.799-8.045,2.398s-7.163,0.899-11.293,0.899c-3.465,0-6.53-0.167-9.194-0.499
		c-9.262-1-16.174-4.082-20.737-9.245c-4.564-5.162-6.846-12.042-6.846-20.637c0-1.799,0.1-3.631,0.3-5.497
		C319.766,56.165,320.016,55.315,320.45,54.816z M336.89,55.066c0-0.333,0.15-0.615,0.45-0.85c0.3-0.233,0.682-0.315,1.149-0.25
		c1.799,0.334,4.081,1.217,6.846,2.648c2.764,1.434,5.23,3.215,7.396,5.347c2.165,2.133,3.414,4.332,3.748,6.596
		c0.133,1-0.25,1.899-1.149,2.698c-0.899,0.8-1.883,1.199-2.948,1.199c-1.399,0-2.433-0.699-3.098-2.099
		c-1.399-3.131-3.083-5.912-5.047-8.345c-1.966-2.431-4.047-4.247-6.246-5.446C337.255,56.165,336.89,55.666,336.89,55.066z
		 M370.968,59.463c0-0.4,0.15-0.683,0.45-0.85c0.3-0.166,0.715-0.216,1.249-0.15c1.865,0.399,4.213,1.516,7.046,3.348
		c2.831,1.833,5.279,3.964,7.345,6.396c2.064,2.433,3.098,4.714,3.098,6.846c0,1.199-0.45,2.198-1.349,2.998
		s-1.883,1.199-2.948,1.199c-1.333,0-2.299-0.665-2.898-1.999c-1.599-3.862-3.098-6.928-4.497-9.193
		c-1.399-2.265-3.498-4.498-6.296-6.696C371.368,60.83,370.968,60.197,370.968,59.463z"/>
	<path d="M397.251,86.546c0-0.933,0.315-1.732,0.949-2.398c0.633-0.666,1.582-1.065,2.849-1.199h0.399
		c0.933-0.133,1.699-0.416,2.299-0.85c0.6-0.433,1.132-1.05,1.599-1.849c4.397-8.128,8.229-18.389,11.493-30.781v-0.4
		c0-0.865-0.467-1.299-1.399-1.299c-3.397,0-6.18,0.05-8.345,0.15c-2.165,0.1-4.447,0.25-6.846,0.45
		c-0.666,0.067-1.184-0.116-1.549-0.55c-0.367-0.433-0.55-0.915-0.55-1.449c0-0.6,0.183-1.099,0.55-1.499
		c0.365-0.4,0.883-0.565,1.549-0.5l2.398,0.2c4.198,0.267,7.429,0.4,9.694,0.4h3.997c1.799,0,2.699-1.199,2.699-3.598V27.683
		c0-1.132-0.185-2.015-0.55-2.648c-0.367-0.632-1.017-0.95-1.949-0.95c-2.133,0-5.331,0.134-9.594,0.4l-2.898,0.2
		c-0.667,0.067-1.184-0.115-1.549-0.549c-0.367-0.433-0.55-0.915-0.55-1.449c0-0.6,0.183-1.099,0.55-1.499
		c0.365-0.4,0.882-0.565,1.549-0.5c5.462,0.334,9.627,0.5,12.492,0.5c1.665,0,2.499-1.165,2.499-3.498V6.096
		c0-1.665,0.482-2.914,1.448-3.748c0.966-0.832,2.182-1.249,3.648-1.249c1.199,0,2.198,0.234,2.998,0.7
		c0.799,0.467,1.199,0.934,1.199,1.399c0,0.534-0.534,0.834-1.6,0.899c-0.399,0.067-0.717,0.3-0.949,0.7
		c-0.234,0.399-0.35,0.833-0.35,1.299v10.993c0,1.199,0.232,2.083,0.699,2.648c0.466,0.567,1.266,0.85,2.398,0.85
		c1.465,0,2.614-0.215,3.448-0.65c0.832-0.432,1.614-1.049,2.349-1.849c1.399-1.399,2.863-2.099,4.397-2.099
		c1.864,0,3.563,0.934,5.097,2.798c0.999,0.999,1.499,1.999,1.499,2.998c0,1.533-1.167,2.298-3.498,2.298h-13.691
		c-1.799,0-2.698,1.199-2.698,3.598v13.691c0,2.398,0.899,3.598,2.698,3.598h3.897c1.332,0,2.448-0.283,3.348-0.85
		c0.899-0.565,1.85-1.349,2.849-2.349c1.465-1.464,2.964-2.198,4.497-2.198c0.865,0,1.731,0.267,2.599,0.799
		c0.999,0.667,1.932,1.466,2.798,2.398c0.732,0.867,1.1,1.699,1.1,2.499c0,0.734-0.3,1.333-0.899,1.799
		c-0.6,0.467-1.466,0.7-2.599,0.7l-15.79,0.1c-0.399,0-0.649,0.084-0.749,0.25c-0.101,0.167-0.15,0.517-0.15,1.049
		c0,0.534-0.367,0.767-1.1,0.7c-1.666-0.266-2.832,0.434-3.497,2.099c-4.065,9.529-8.263,17.889-12.593,25.084
		c-0.467,0.733-0.699,1.434-0.699,2.099c0,1.134,0.732,1.699,2.198,1.699c0.466,0,0.833-0.033,1.1-0.101
		c6.661-1.399,12.758-3.03,18.289-4.896c1.531-0.533,2.298-1.433,2.298-2.698c0-0.466-0.167-1.1-0.499-1.899
		c-2.066-3.997-4.232-7.295-6.496-9.894c-0.6-0.732-0.899-1.365-0.899-1.898c0-0.8,0.365-1.2,1.099-1.2c0.4,0,0.833,0.134,1.3,0.4
		c1.664,0.866,3.763,2.583,6.296,5.146c2.531,2.565,4.88,5.497,7.046,8.795c2.164,3.298,3.58,6.445,4.247,9.444
		c0.133,0.666,0.2,1.133,0.2,1.398c0,1.267-0.351,2.316-1.05,3.148s-1.517,1.249-2.448,1.249c-0.667,0-1.3-0.25-1.899-0.749
		c-0.6-0.5-1.066-1.215-1.398-2.149l-1.799-4.497c-0.6-1.465-1.534-2.198-2.799-2.198c-0.6,0-1.199,0.134-1.799,0.399
		c-8.062,3.665-18.322,7.03-30.78,10.094c-0.8,0.2-1.334,0.383-1.6,0.55c-0.267,0.165-0.366,0.516-0.3,1.049v0.3
		c0,0.6-0.233,0.899-0.699,0.899c-0.334,0-0.699-0.167-1.1-0.499C398.051,89.777,397.251,88.278,397.251,86.546z M458.014,90.144
		c0,1.199-0.45,2.182-1.35,2.948c-0.899,0.765-1.849,1.149-2.849,1.149c-0.666,0-1.216-0.218-1.648-0.65
		c-0.435-0.434-0.617-1.049-0.55-1.849V4.098c0-0.732,0.5-1.099,1.499-1.099c0.732,0,1.499,0.217,2.299,0.649
		c0.8,0.434,1.432,0.984,1.898,1.649c0.466,0.734,0.883,1.249,1.249,1.549s0.883,0.45,1.55,0.45h17.488c0.6,0,1.183-0.15,1.749-0.45
		c0.565-0.3,1.082-0.649,1.55-1.049c1.132-0.865,2.031-1.299,2.698-1.299c0.731,0,1.682,0.334,2.848,0.999
		c1.165,0.667,2.182,1.434,3.048,2.299c0.865,0.867,1.3,1.566,1.3,2.099c0,0.467-0.085,0.816-0.25,1.049
		c-0.167,0.234-0.45,0.517-0.85,0.85c-0.534,0.399-0.949,0.833-1.249,1.299c-0.3,0.467-0.484,1.167-0.55,2.099
		c-0.134,5.73-0.217,10.743-0.25,15.041c-0.034,4.297-0.05,7.879-0.05,10.743c0,8.462-0.05,14.675-0.149,18.638
		c-0.101,3.965-0.385,6.381-0.85,7.245c-0.6,1.134-1.384,1.999-2.349,2.599c-0.967,0.6-1.916,0.899-2.849,0.899
		c-0.8,0-1.499-0.199-2.099-0.6c-0.6-0.399-0.967-0.865-1.1-1.398c-0.134-0.533-0.267-0.933-0.399-1.2
		c-0.467-1.064-1.799-1.931-3.997-2.598c-2.199-0.665-4.165-1.165-5.896-1.499c-1.733-0.333-2.766-0.533-3.099-0.6
		c-0.533-0.065-0.966-0.266-1.299-0.6c-0.334-0.333-0.5-0.665-0.5-1c0-0.399,0.2-0.732,0.6-0.999c0.4-0.266,0.933-0.333,1.6-0.2
		c0.465,0.067,2.231,0.435,5.297,1.1c3.063,0.667,5.262,0.999,6.596,0.999c1.864,0,3.113-1.549,3.747-4.647
		c0.633-3.098,0.95-7.978,0.95-14.641l-0.101-11.593c-0.134-6.928-0.199-12.692-0.199-17.289c0-1.132-0.3-1.999-0.9-2.599
		c-0.6-0.6-1.466-0.899-2.598-0.899h-16.49c-1.066,0-1.916,0.3-2.548,0.899c-0.634,0.6-0.949,1.466-0.949,2.599V90.144z"/>
	<path d="M544.161,84.248c-0.667-0.266-1-0.633-1-1.1c0-0.465,0.315-0.85,0.95-1.149c0.632-0.3,1.515-0.449,2.647-0.449
		c3.798-0.065,7.461-1.299,10.993-3.698c3.531-2.398,6.462-5.579,8.795-9.544c2.331-3.963,3.73-8.244,4.197-12.842
		c0.133-1.332,0.2-2.331,0.2-2.998c0-4.197-0.834-8.277-2.499-12.242c-1.666-3.963-4.214-7.411-7.645-10.344
		c-3.433-2.931-7.612-4.897-12.543-5.896c-0.799-0.133-1.398-0.05-1.799,0.25c-0.399,0.3-0.6,0.784-0.6,1.449
		c0,0.4,0.101,0.867,0.3,1.399c1.199,2.798,1.799,5.231,1.799,7.295c0,1.533-0.267,2.833-0.799,3.897l-4.997,11.493
		c-4.064,9.395-7.313,16.507-9.744,21.337c-2.433,4.831-4.881,8.079-7.345,9.744c-1.334,0.934-2.566,1.398-3.698,1.398
		c-1.267,0-2.398-0.449-3.397-1.349c-1-0.899-2.299-2.349-3.897-4.348c-0.335-0.465-0.899-1.165-1.699-2.099
		c-2.199-2.464-3.932-5.43-5.197-8.895c-1.266-3.463-1.898-7.028-1.898-10.693c0-2.464,0.3-4.83,0.899-7.095
		c1.532-5.997,4.313-11.043,8.345-15.141c4.03-4.098,8.11-7.079,12.242-8.944c4.93-2.199,10.227-3.298,15.891-3.298
		c3.397,0,6.729,0.435,9.993,1.299c3.264,0.867,6.229,2.099,8.895,3.698c5.197,2.998,9.26,6.846,12.192,11.543
		c2.931,4.697,4.397,9.811,4.397,15.34c0,1.466-0.1,2.898-0.3,4.297c-1.134,8.129-4.364,14.575-9.694,19.338
		c-5.331,4.764-12.392,7.612-21.187,8.545C545.759,84.582,544.826,84.514,544.161,84.248z M531.718,63.061
		c2.898-4.997,5.313-10.609,7.245-16.84c1.932-6.229,2.898-11.875,2.898-16.939c0-0.799-0.067-1.999-0.2-3.598
		c-0.134-0.732-0.434-1.282-0.899-1.649c-0.467-0.365-1.099-0.515-1.898-0.45c-4.397,0.667-8.495,2.199-12.292,4.597
		c-3.798,2.398-6.996,5.331-9.595,8.794c-2.598,3.465-4.396,7.096-5.396,10.893c-0.467,1.667-0.699,3.465-0.699,5.397
		c0,3.332,0.665,6.53,1.999,9.594c1.331,3.065,2.931,5.563,4.797,7.495c1.864,1.934,3.463,2.898,4.797,2.898
		c0.399,0,0.732-0.1,0.999-0.3C526.072,71.356,528.82,68.058,531.718,63.061z"/>
	<path d="M595.178,46.122c-0.367-0.433-0.55-0.915-0.55-1.449c0-0.6,0.183-1.1,0.55-1.499c0.365-0.4,0.883-0.565,1.549-0.5
		l3.698,0.3c2.531,0.134,4.03,0.2,4.497,0.2c1.064,0,1.882-0.3,2.448-0.899c0.565-0.6,0.85-1.432,0.85-2.499V12.592
		c0-1.665,0.482-2.914,1.449-3.748c0.965-0.833,2.182-1.25,3.647-1.25c1.199,0,2.199,0.234,2.998,0.7
		c0.8,0.467,1.199,0.934,1.199,1.399c0,0.534-0.534,0.833-1.599,0.899c-0.399,0.067-0.717,0.3-0.949,0.699
		c-0.234,0.4-0.35,0.834-0.35,1.299v26.284c0,1.066,0.199,1.933,0.6,2.598c0.399,0.667,0.899,1,1.499,1c0.332,0,0.665-0.1,0.999-0.3
		c0.6-0.4,1.399-1.099,2.398-2.099c1.465-1.465,2.931-2.199,4.397-2.199c1.664,0,3.498,1.066,5.496,3.198
		c0.732,0.866,1.1,1.699,1.1,2.498c0,0.734-0.3,1.333-0.899,1.799c-0.6,0.467-1.466,0.7-2.599,0.7l-9.494,0.1
		c-1.066,0-1.916,0.3-2.548,0.899c-0.634,0.6-0.949,1.466-0.949,2.598v18.289c0,1,0.199,1.767,0.6,2.299
		c0.399,0.534,0.965,0.8,1.698,0.8c0.665,0,1.265-0.166,1.799-0.5c2.465-1.265,5.43-3.131,8.895-5.597
		c0.333-0.266,0.732-0.399,1.199-0.399c0.333,0,0.615,0.134,0.85,0.399c0.232,0.268,0.35,0.567,0.35,0.899
		c0,0.467-0.267,0.967-0.799,1.499c-3.998,3.465-8.229,6.563-12.692,9.294c-4.465,2.733-8.829,4.965-13.092,6.696
		c-1.799,0.733-2.433,1.566-1.898,2.498c0.132,0.2,0.199,0.466,0.199,0.8c0,0.665-0.334,0.999-0.999,0.999
		c-0.135,0-0.467-0.066-0.999-0.199c-1.399-0.534-2.466-1.267-3.198-2.199c-0.734-0.932-1.1-1.932-1.1-2.998
		c0-1.064,0.383-2.014,1.149-2.848c0.765-0.833,1.882-1.449,3.348-1.85c1.199-0.265,2.998-0.731,5.396-1.398
		c1.932-0.665,2.898-1.999,2.898-3.998V49.669c0-1.132-0.3-1.999-0.899-2.598s-1.466-0.899-2.599-0.899
		c-1.533,0.067-4.197,0.234-7.995,0.5C596.061,46.738,595.543,46.556,595.178,46.122z M635.553,83.797
		c5.362-4.097,8.744-9.109,10.144-15.04c0.333-1.399,0.965-2.464,1.898-3.198c0.933-0.732,1.965-1.1,3.099-1.1
		c0.8,0,1.614,0.2,2.448,0.6c0.832,0.4,1.549,0.935,2.148,1.6c0.4,0.399,0.6,0.834,0.6,1.299c0,0.4-0.134,0.7-0.399,0.899
		c-0.267,0.2-0.6,0.234-0.999,0.101c-0.135-0.066-0.3-0.101-0.5-0.101c-0.267,0-0.467,0.135-0.6,0.4
		c-0.135,0.267-0.25,0.549-0.35,0.849c-0.101,0.3-0.185,0.518-0.25,0.65c-2.066,6.729-6.313,12.142-12.742,16.239
		c-6.431,4.098-13.809,6.679-22.136,7.745h-0.7c-0.666,0-1.216-0.134-1.648-0.399c-0.435-0.268-0.649-0.567-0.649-0.899
		c0-0.334,0.199-0.649,0.6-0.949c0.399-0.3,0.999-0.518,1.799-0.65C624.11,90.577,630.189,87.895,635.553,83.797z M629.107,35.378
		l-2.398,0.2c-0.667,0.067-1.184-0.116-1.549-0.55c-0.367-0.433-0.55-0.915-0.55-1.449c0-0.6,0.183-1.099,0.55-1.499
		c0.365-0.4,0.882-0.565,1.549-0.5l2.398,0.2c4.197,0.267,7.429,0.4,9.694,0.4h15.59c1.332,0,2.332-0.5,2.998-1.499
		c0.933-1.399,2.132-3.598,3.598-6.596c0.333-0.732,0.666-1.432,1-2.099c0.332-0.665,0.632-1.299,0.899-1.899
		c0.532-1.065,1.231-1.864,2.099-2.398c0.865-0.532,1.832-0.799,2.898-0.799c1.064,0,2.064,0.267,2.998,0.799
		c0.932,0.534,1.698,1.333,2.298,2.398c0.266,0.467,0.4,0.9,0.4,1.299c0,0.8-0.3,1.199-0.899,1.199c-0.2,0-0.467-0.1-0.8-0.3
		c-0.399-0.265-0.8-0.232-1.199,0.1c-0.399,0.334-1.199,1.134-2.398,2.398c-0.999,1.066-2.498,2.533-4.497,4.397
		c-0.6,0.6-0.899,1.167-0.899,1.699c0,0.4,0.183,0.717,0.55,0.949c0.365,0.234,0.882,0.35,1.549,0.35h9.994
		c1.331,0,2.448-0.283,3.348-0.85c0.899-0.565,1.849-1.349,2.848-2.349c1.465-1.464,2.964-2.198,4.497-2.198
		c0.865,0,1.732,0.267,2.599,0.799c1,0.667,1.932,1.466,2.799,2.398c0.732,0.867,1.099,1.699,1.099,2.499
		c0,0.734-0.3,1.333-0.899,1.799c-0.6,0.467-1.466,0.7-2.598,0.7l-13.691,0.1l-36.178-0.1
		C636.135,34.979,632.905,35.113,629.107,35.378z M630.756,16.04c-0.367-0.433-0.55-0.915-0.55-1.449c0-0.6,0.183-1.1,0.55-1.5
		c0.365-0.399,0.882-0.565,1.549-0.5c0.532,0.067,1.265,0.1,2.198,0.1c2.199,0.134,4.397,0.25,6.597,0.35
		c2.198,0.1,5.162,0.15,8.895,0.15c1.132,0,1.998-0.315,2.598-0.949c0.6-0.632,0.899-1.482,0.899-2.548V4.997
		c0-1.665,0.482-2.914,1.449-3.748c0.965-0.833,2.182-1.25,3.647-1.25c1.199,0,2.199,0.234,2.998,0.7c0.8,0.467,1.2,0.934,1.2,1.399
		c0,0.534-0.534,0.833-1.6,0.899c-0.399,0.067-0.717,0.3-0.949,0.699c-0.234,0.4-0.35,0.834-0.35,1.299v4.697
		c0,1.066,0.315,1.916,0.949,2.548c0.633,0.634,1.481,0.949,2.549,0.949h8.294c0.933,0,1.665-0.166,2.199-0.5
		c0.532-0.333,1.199-0.899,1.999-1.699c1.731-1.731,3.263-2.598,4.597-2.598c1.332,0,2.764,0.867,4.297,2.598
		c0.732,0.867,1.1,1.699,1.1,2.499c0,0.734-0.3,1.333-0.899,1.799c-0.6,0.467-1.466,0.7-2.599,0.7h-32.979
		c-6.13,0-11.06,0.134-14.79,0.4l-2.299,0.2C631.638,16.657,631.122,16.474,630.756,16.04z M635.803,38.976
		c0-0.732,0.499-1.099,1.499-1.099c1.199,0,2.182,0.167,2.948,0.5c0.765,0.334,1.549,0.767,2.349,1.299
		c0.799,0.534,1.364,0.8,1.698,0.8h22.687c0.6,0,1.182-0.15,1.749-0.45c0.564-0.3,1.082-0.65,1.549-1.05
		c0.399-0.333,0.832-0.649,1.299-0.949c0.466-0.3,0.933-0.45,1.399-0.45c0.732,0,1.682,0.334,2.848,1
		c1.165,0.667,2.182,1.434,3.049,2.298c0.864,0.867,1.299,1.566,1.299,2.099c0,0.467-0.1,0.817-0.3,1.049
		c-0.2,0.234-0.5,0.517-0.899,0.85c-0.534,0.4-0.949,0.834-1.249,1.299c-0.3,0.467-0.45,1.167-0.45,2.099v17.988
		c0,1.267-0.467,2.267-1.398,2.999c-0.935,0.733-1.967,1.099-3.099,1.099c-0.934,0-1.533-0.282-1.799-0.85
		c-0.267-0.564-0.399-1.314-0.399-2.248c0-1.199-0.3-2.148-0.899-2.849c-0.6-0.699-1.467-1.049-2.599-1.049
		c-0.667,0-1.184,0.316-1.549,0.949c-0.367,0.634-0.55,1.483-0.55,2.548V80.45c0,2.466,0.183,4.364,0.55,5.696
		c0.365,1.332,0.982,2.199,1.849,2.599c1.265,0.665,3.764,0.999,7.495,0.999c2.731,0,4.697-0.167,5.896-0.499
		c1.999-0.534,3.264-1.6,3.798-3.198c0.332-0.933,0.499-2.531,0.499-4.797l-0.1-3.598c0-0.8,0.133-1.415,0.399-1.849
		c0.266-0.433,0.6-0.65,1-0.65c0.399,0,0.732,0.218,0.999,0.65c0.266,0.434,0.4,1.083,0.4,1.948l-0.101,2.799
		c0,2.133,0.266,3.497,0.8,4.097c0.532,0.667,0.949,1.267,1.249,1.799c0.3,0.533,0.45,1.1,0.45,1.699
		c0,2.398-1.267,4.13-3.798,5.197c-2.398,1.064-6.23,1.599-11.493,1.599c-2.065,0-4.098-0.117-6.096-0.35
		c-1.999-0.234-3.598-0.518-4.797-0.85c-2.333-0.734-3.815-1.949-4.447-3.647c-0.635-1.699-0.95-4.081-0.95-7.146V66.858
		c0-1.132-0.3-1.998-0.899-2.598s-1.466-0.899-2.598-0.899h-9.395c-1.134,0-1.999,0.25-2.599,0.749
		c-0.6,0.5-0.899,1.217-0.899,2.148c0,1.2-0.467,2.184-1.398,2.948c-0.935,0.767-1.934,1.149-2.998,1.149
		c-1.334,0-1.999-0.765-1.999-2.298V38.976z M641.1,18.489c0-0.465,0.183-0.85,0.549-1.149s0.815-0.315,1.35-0.05
		c2.398,0.999,4.48,2.298,6.246,3.897c1.765,1.599,2.948,3.032,3.548,4.297c0.333,0.667,0.5,1.399,0.5,2.199
		c0,1.066-0.385,1.898-1.149,2.498c-0.767,0.6-1.649,0.899-2.648,0.899c-0.734,0-1.399-0.183-1.999-0.549
		c-0.6-0.366-0.999-0.915-1.199-1.649c-1.199-4.063-2.798-7.196-4.797-9.395C641.233,19.223,641.1,18.888,641.1,18.489z
		 M643.098,49.319c0.6,0.634,1.433,0.949,2.499,0.949l21.886,0.1c2.265,0,3.398-1.232,3.398-3.698c0-1.132-0.3-1.999-0.899-2.598
		s-1.467-0.899-2.599-0.899h-21.687c-1.066,0-1.916,0.3-2.549,0.899c-0.634,0.6-0.949,1.466-0.949,2.598
		C642.199,47.805,642.499,48.687,643.098,49.319z M643.148,59.613c0.633,0.634,1.482,0.949,2.549,0.949l21.687,0.101
		c1.132,0,1.999-0.315,2.599-0.95c0.6-0.632,0.899-1.514,0.899-2.648c0-1.132-0.268-1.999-0.8-2.598
		c-0.534-0.6-1.267-0.899-2.198-0.899l-22.286,0.1c-1.066,0-1.899,0.3-2.499,0.899s-0.899,1.434-0.899,2.499
		C642.199,58.131,642.514,58.98,643.148,59.613z"/>
	<path d="M718.951,58.114c7.328-4.897,13.392-10.676,18.189-17.339c0.265-0.266,0.399-0.565,0.399-0.899
		c0-0.266-0.117-0.483-0.35-0.65c-0.234-0.166-0.55-0.25-0.95-0.25h-9.693c-2.133,0-3.298,0.734-3.498,2.199
		c-0.2,1-0.717,1.816-1.549,2.449c-0.834,0.634-1.749,0.949-2.748,0.949c-0.667,0-1.217-0.215-1.649-0.649
		c-0.434-0.433-0.649-1.015-0.649-1.749l0.2-39.575c0-0.732,0.499-1.1,1.499-1.1c1.199,0,2.181,0.167,2.948,0.5
		c0.765,0.334,1.549,0.767,2.348,1.299c0.8,0.534,1.365,0.799,1.699,0.799h35.777c0.6,0,1.183-0.15,1.749-0.45
		c0.565-0.3,1.082-0.649,1.55-1.049c0.399-0.333,0.832-0.649,1.299-0.95c0.465-0.3,0.933-0.45,1.399-0.45
		c1.064,0,2.148,0.334,3.248,1c1.099,0.667,2.031,1.434,2.798,2.299c0.765,0.867,1.149,1.566,1.149,2.099
		c0,0.467-0.101,0.816-0.3,1.049c-0.2,0.234-0.5,0.517-0.899,0.85c-0.534,0.399-0.949,0.833-1.249,1.299
		c-0.3,0.467-0.45,1.167-0.45,2.099v28.982c0,1.134-0.417,2.033-1.249,2.698c-0.834,0.667-1.849,1-3.048,1
		c-0.867,0-1.434-0.25-1.699-0.75c-0.268-0.5-0.5-1.182-0.699-2.049c-0.2-1.864-1.367-2.798-3.498-2.798h-13.092
		c-0.334-0.065-0.75,0.084-1.249,0.45c-0.5,0.367-0.75,0.784-0.75,1.249c0,0.467,0.232,0.966,0.699,1.499
		c6.329,6.73,13.524,12.042,21.587,15.94c8.061,3.897,15.356,6.28,21.887,7.146c1.199,0.2,1.799,0.6,1.799,1.199
		c0,0.268-0.135,0.5-0.4,0.699c-0.267,0.2-0.634,0.301-1.099,0.301c-1.267,0-2.499,0.199-3.698,0.6
		c-1.199,0.399-1.898,1.033-2.099,1.898c-0.267,0.999-0.8,1.366-1.599,1.1c-2.799-0.466-6.496-1.749-11.094-3.848
		c-4.597-2.099-9.328-5.08-14.19-8.945c-0.334-0.265-0.667-0.4-1-0.4c-0.267,0-0.483,0.117-0.649,0.35
		c-0.167,0.234-0.25,0.55-0.25,0.95v30.081c0,1.199-0.449,2.182-1.349,2.948c-0.899,0.765-1.849,1.149-2.849,1.149
		c-0.667,0-1.216-0.218-1.648-0.65c-0.435-0.434-0.617-1.049-0.55-1.849V56.665c0-1.132,0.266-2.131,0.8-2.998
		c0.265-0.333,0.399-0.699,0.399-1.099c0-0.333-0.135-0.632-0.399-0.899c-1.534-1.465-3.333-3.398-5.397-5.796
		c-0.399-0.4-0.966-0.6-1.698-0.6c-0.867,0-1.666,0.3-2.398,0.899c-1,1.066-2.633,2.598-4.897,4.597c-0.334,0.334-0.5,0.6-0.5,0.799
		c0,0.334,0.266,0.667,0.8,1c0.532,0.4,0.8,0.799,0.8,1.199c0,0.534-0.5,0.834-1.499,0.899c-0.4,0.067-0.717,0.3-0.949,0.7
		c-0.234,0.399-0.351,0.833-0.351,1.299v8.495c0,6.995-2.083,12.876-6.246,17.639c-4.164,4.763-9.678,8.045-16.539,9.844
		c-0.667,0.133-1.134,0.2-1.399,0.2c-0.534,0-0.967-0.084-1.299-0.25c-0.334-0.167-0.5-0.417-0.5-0.75
		c0-0.733,0.832-1.433,2.498-2.099c4.997-1.865,9.011-4.946,12.043-9.244c3.031-4.297,4.647-9.776,4.847-16.439l0.101-4.797
		c0-0.865-0.268-1.299-0.8-1.299c-0.135,0-0.467,0.134-0.999,0.4c-4.665,3.065-9.345,5.664-14.042,7.795
		c-4.696,2.133-8.979,3.632-12.842,4.497c-0.267,0.067-0.6,0.101-0.999,0.101c-0.534,0-0.949-0.101-1.249-0.3
		c-0.3-0.2-0.45-0.466-0.45-0.8c0-0.266,0.166-0.55,0.5-0.85c0.332-0.3,0.765-0.516,1.299-0.649
		C704.66,66.359,711.622,63.011,718.951,58.114z M723.048,17.589c0,1.666,0.832,2.498,2.499,2.498h12.691
		c1.665,0,2.499-0.832,2.499-2.498V9.294c0-1.665-0.834-2.499-2.499-2.499h-11.692c-1.066,0-1.916,0.3-2.549,0.899
		c-0.634,0.6-0.949,1.466-0.949,2.599V17.589z M723.048,32.68c0,1.066,0.315,1.916,0.949,2.548c0.633,0.634,1.482,0.95,2.549,0.95
		h11.692c1.665,0,2.499-0.833,2.499-2.499v-8.395c0-1.665-0.834-2.498-2.499-2.498h-12.691c-1.667,0-2.499,0.833-2.499,2.498V32.68z
		 M747.133,17.589c0,1.666,0.832,2.498,2.499,2.498h12.691c1.665,0,2.499-0.832,2.499-2.498v-7.295c0-1.132-0.3-1.999-0.899-2.599
		s-1.467-0.899-2.599-0.899h-11.692c-1.667,0-2.499,0.834-2.499,2.499V17.589z M747.133,33.779c0,1.666,0.832,2.498,2.499,2.498
		h11.692c1.132,0,1.999-0.315,2.599-0.949c0.6-0.632,0.899-1.482,0.899-2.548v-7.496c0-1.665-0.834-2.498-2.499-2.498h-12.691
		c-1.667,0-2.499,0.833-2.499,2.498V33.779z"/>
</g>
</svg>
