<?xml version="1.0" encoding="utf-8"?>
<!-- Generator: Adobe Illustrator 15.1.0, SVG Export Plug-In . SVG Version: 6.00 Build 0)  -->
<!DOCTYPE svg PUBLIC "-//W3C//DTD SVG 1.1//EN" "http://www.w3.org/Graphics/SVG/1.1/DTD/svg11.dtd">
<svg version="1.1" id="レイヤー_1" xmlns="http://www.w3.org/2000/svg" xmlns:xlink="http://www.w3.org/1999/xlink" x="0px"
	 y="0px" width="940.163px" height="110.046px" viewBox="0 0 940.163 110.046" enable-background="new 0 0 940.163 110.046"
	 xml:space="preserve">
<text transform="matrix(1 0 0 1 68.083 85.8247)" display="none" font-family="'HinaMincho-Regular'" font-size="100.5">記録と忘却の境界</text>
<text transform="matrix(1 0 0 1 0.0015 85.8247)" display="none" font-family="'PlayfairDisplay-Regular'" font-size="100.5">~ Oblivion&apos;s Memory</text>
<g>
	<path d="M21.609,49.142c2.478,0,4.774,0.386,6.884,1.156c2.11,0.771,4.153,1.676,6.13,2.713c1.976,1.04,3.986,1.944,6.03,2.714
		c2.043,0.771,4.204,1.156,6.482,1.156c2.01,0,3.802-0.435,5.377-1.307c1.573-0.87,2.797-2.377,3.668-4.522l1.708,0.502
		c-0.269,2.211-1.073,4.105-2.412,5.678c-1.341,1.575-3.032,2.798-5.075,3.668c-2.044,0.871-4.271,1.307-6.684,1.307
		c-2.479,0-4.773-0.385-6.884-1.156c-2.111-0.77-4.155-1.674-6.131-2.713c-1.977-1.038-3.97-1.942-5.979-2.713
		c-2.01-0.77-4.188-1.156-6.533-1.156c-2.01,0-3.786,0.437-5.327,1.307c-1.542,0.872-2.781,2.379-3.718,4.522l-1.708-0.502
		c0.267-2.211,1.071-4.104,2.412-5.678c1.339-1.574,3.048-2.797,5.125-3.668C17.052,49.579,19.263,49.142,21.609,49.142z"/>
	<path d="M127.534,13.264c6.364,0,11.942,1.441,16.733,4.322c4.79,2.881,8.508,7.019,11.156,12.412
		c2.646,5.394,3.97,11.944,3.97,19.647c0,7.505-1.357,14.07-4.07,19.698c-2.713,5.629-6.482,10.018-11.306,13.166
		c-4.824,3.15-10.352,4.724-16.583,4.724c-6.366,0-11.944-1.44-16.733-4.321c-4.791-2.881-8.509-7.035-11.155-12.463
		c-2.647-5.427-3.97-11.959-3.97-19.597c0-7.503,1.372-14.07,4.12-19.698c2.747-5.628,6.516-10.016,11.307-13.166
		C115.791,14.839,121.303,13.264,127.534,13.264z M127.132,15.073c-4.356,0-8.14,1.507-11.356,4.522
		c-3.216,3.015-5.713,7.17-7.487,12.462c-1.776,5.293-2.663,11.424-2.663,18.392c0,7.103,0.988,13.283,2.965,18.542
		c1.976,5.261,4.656,9.313,8.04,12.161c3.382,2.849,7.118,4.271,11.206,4.271c4.354,0,8.141-1.507,11.356-4.522
		c3.216-3.015,5.711-7.186,7.487-12.512c1.774-5.327,2.664-11.44,2.664-18.341c0-7.168-0.99-13.367-2.965-18.593
		c-1.977-5.226-4.641-9.262-7.99-12.11C135.037,16.497,131.286,15.073,127.132,15.073z"/>
	<path d="M181.804,7.133v73.466c-0.872,0.737-1.759,1.491-2.663,2.261c-0.905,0.771-1.793,1.524-2.664,2.262
		c-0.871,0.736-1.776,1.507-2.713,2.312l-1.708-0.704c0.267-0.938,0.452-1.892,0.553-2.864c0.101-0.971,0.151-1.96,0.151-2.965
		V19.193c0-3.015-0.537-5.242-1.608-6.684c-1.073-1.44-3.083-2.161-6.03-2.161v-2.11c2.144,0.201,4.221,0.301,6.231,0.301
		c1.943,0,3.802-0.116,5.578-0.352C178.704,7.955,180.329,7.603,181.804,7.133z M197.482,32.66c5.493,0,10.05,2.261,13.668,6.784
		c3.618,4.522,5.427,11.374,5.427,20.553c0,6.029-1.022,11.072-3.065,15.125c-2.045,4.055-4.774,7.085-8.191,9.095
		c-3.417,2.011-7.136,3.016-11.156,3.016c-3.351,0-6.583-0.955-9.698-2.864c-3.115-1.91-5.444-4.739-6.984-8.492l2.01,1.105
		c1.674,2.681,3.751,4.673,6.231,5.979c2.478,1.307,5.025,1.96,7.638,1.96c4.488,0,7.854-2.026,10.1-6.08
		c2.244-4.054,3.367-10.335,3.367-18.844c0-5.427-0.437-9.95-1.306-13.568c-0.872-3.618-2.211-6.314-4.02-8.09
		c-1.809-1.774-4.121-2.663-6.935-2.663c-3.083,0-5.947,1.391-8.593,4.171c-2.647,2.781-4.271,6.851-4.875,12.21l-1.206-1.407
		c0.737-5.694,2.729-10.116,5.98-13.266C189.123,34.235,192.992,32.66,197.482,32.66z"/>
	<path d="M240.193,7.033v69.445c0,2.814,0.585,4.724,1.759,5.729c1.171,1.005,3.131,1.508,5.879,1.508v2.11
		c-1.14-0.066-2.864-0.15-5.176-0.251s-4.641-0.151-6.985-0.151c-2.279,0-4.59,0.051-6.935,0.151
		c-2.346,0.101-4.087,0.185-5.226,0.251v-2.11c2.747,0,4.706-0.503,5.879-1.508c1.171-1.005,1.759-2.914,1.759-5.729V19.093
		c0-3.015-0.537-5.242-1.608-6.683c-1.073-1.44-3.083-2.161-6.03-2.161v-2.11c2.144,0.201,4.221,0.302,6.231,0.302
		c1.942,0,3.802-0.116,5.578-0.352C237.093,7.854,238.718,7.502,240.193,7.033z"/>
	<path d="M269.639,32.962v43.516c0,2.814,0.585,4.724,1.759,5.729c1.171,1.005,3.131,1.508,5.879,1.508v2.11
		c-1.14-0.066-2.864-0.15-5.176-0.251s-4.64-0.151-6.984-0.151c-2.279,0-4.59,0.051-6.935,0.151
		c-2.346,0.101-4.088,0.185-5.226,0.251v-2.11c2.747,0,4.706-0.503,5.879-1.508c1.171-1.005,1.759-2.914,1.759-5.729V45.021
		c0-3.015-0.537-5.242-1.608-6.683c-1.072-1.44-3.083-2.161-6.03-2.161v-2.11c2.144,0.201,4.221,0.301,6.231,0.301
		c1.942,0,3.802-0.116,5.578-0.352C266.539,33.783,268.165,33.431,269.639,32.962z M264.413,8.942c1.741,0,3.249,0.637,4.522,1.909
		c1.272,1.273,1.91,2.781,1.91,4.522c0,1.743-0.638,3.25-1.91,4.522c-1.273,1.274-2.781,1.91-4.522,1.91
		c-1.743,0-3.25-0.636-4.522-1.91c-1.273-1.272-1.91-2.779-1.91-4.522c0-1.741,0.636-3.249,1.91-4.522
		C261.163,9.58,262.67,8.942,264.413,8.942z"/>
	<path d="M328.331,34.067v2.01c-1.273,0.135-2.446,0.704-3.517,1.708c-1.073,1.005-2.078,2.781-3.015,5.327l-16.482,43.215
		c-0.269,0-0.537,0-0.804,0c-0.269,0-0.57,0-0.904,0l-18.492-44.522c-1.072-2.613-2.128-4.204-3.166-4.774
		c-1.04-0.568-1.927-0.854-2.664-0.854v-2.11c1.34,0.067,2.729,0.15,4.171,0.251c1.44,0.101,2.998,0.151,4.673,0.151
		c2.076,0,4.271-0.033,6.583-0.101c2.312-0.066,4.473-0.167,6.482-0.301v2.11c-1.675,0-3.166,0.118-4.472,0.352
		c-1.307,0.236-2.145,0.889-2.513,1.96c-0.369,1.072-0.05,2.915,0.955,5.527l12.563,31.054l-0.603,0.503l11.457-30.049
		c0.87-2.211,1.222-3.97,1.055-5.276c-0.168-1.307-0.839-2.294-2.01-2.965c-1.173-0.669-2.965-1.071-5.376-1.206v-2.01
		c1.206,0.067,2.244,0.118,3.115,0.15c0.87,0.035,1.724,0.068,2.563,0.101c0.837,0.035,1.759,0.05,2.764,0.05
		c1.541,0,2.93-0.033,4.171-0.101C326.103,34.202,327.258,34.135,328.331,34.067z"/>
	<path d="M348.23,32.962v43.516c0,2.814,0.585,4.724,1.759,5.729c1.171,1.005,3.131,1.508,5.879,1.508v2.11
		c-1.14-0.066-2.864-0.15-5.176-0.251s-4.64-0.151-6.984-0.151c-2.279,0-4.59,0.051-6.935,0.151
		c-2.346,0.101-4.088,0.185-5.226,0.251v-2.11c2.747,0,4.706-0.503,5.879-1.508c1.171-1.005,1.759-2.914,1.759-5.729V45.021
		c0-3.015-0.537-5.242-1.608-6.683c-1.072-1.44-3.083-2.161-6.03-2.161v-2.11c2.144,0.201,4.221,0.301,6.231,0.301
		c1.942,0,3.802-0.116,5.578-0.352C345.13,33.783,346.755,33.431,348.23,32.962z M343.004,8.942c1.741,0,3.249,0.637,4.522,1.909
		c1.272,1.273,1.91,2.781,1.91,4.522c0,1.743-0.638,3.25-1.91,4.522c-1.273,1.274-2.781,1.91-4.522,1.91
		c-1.743,0-3.25-0.636-4.522-1.91c-1.273-1.272-1.91-2.779-1.91-4.522c0-1.741,0.636-3.249,1.91-4.522
		C339.753,9.58,341.261,8.942,343.004,8.942z"/>
	<path d="M385.616,32.66c4.287,0,8.141,0.939,11.558,2.814c3.417,1.876,6.146,4.824,8.19,8.844c2.043,4.02,3.065,9.246,3.065,15.678
		c0,6.432-1.022,11.642-3.065,15.627c-2.044,3.987-4.773,6.919-8.19,8.794s-7.271,2.814-11.558,2.814
		c-4.221,0-8.058-0.939-11.507-2.814c-3.452-1.875-6.198-4.807-8.241-8.794c-2.044-3.985-3.065-9.195-3.065-15.627
		c0-6.433,1.021-11.658,3.065-15.678c2.043-4.02,4.79-6.968,8.241-8.844C377.558,33.599,381.395,32.66,385.616,32.66z
		 M385.616,34.67c-3.819,0-6.952,1.977-9.397,5.929c-2.446,3.954-3.668,10.419-3.668,19.397c0,8.979,1.222,15.427,3.668,19.346
		c2.445,3.92,5.578,5.88,9.397,5.88c3.819,0,6.95-1.96,9.396-5.88c2.445-3.919,3.668-10.367,3.668-19.346
		c0-8.978-1.223-15.443-3.668-19.397C392.566,36.647,389.435,34.67,385.616,34.67z"/>
	<path d="M449.834,32.66c2.545,0,4.673,0.336,6.382,1.005c1.708,0.671,3.131,1.608,4.271,2.814c1.272,1.341,2.176,3.015,2.713,5.025
		c0.536,2.01,0.804,4.723,0.804,8.14v26.833c0,2.814,0.586,4.724,1.759,5.729c1.171,1.005,3.131,1.508,5.879,1.508v2.11
		c-1.14-0.066-2.881-0.15-5.226-0.251c-2.346-0.101-4.623-0.151-6.834-0.151s-4.372,0.051-6.482,0.151s-3.703,0.185-4.774,0.251
		v-2.11c2.412,0,4.121-0.503,5.125-1.508c1.005-1.005,1.508-2.914,1.508-5.729V47.434c0-2.076-0.168-3.985-0.502-5.729
		c-0.336-1.741-1.09-3.148-2.261-4.221c-1.173-1.071-2.965-1.608-5.377-1.608c-2.814,0-5.276,0.804-7.387,2.412
		s-3.753,3.803-4.924,6.583c-1.173,2.781-1.759,5.879-1.759,9.296v22.311c0,2.814,0.502,4.724,1.507,5.729s2.713,1.508,5.125,1.508
		v2.11c-1.072-0.066-2.663-0.15-4.774-0.251c-2.11-0.101-4.271-0.151-6.482-0.151s-4.49,0.051-6.834,0.151
		c-2.346,0.101-4.088,0.185-5.226,0.251v-2.11c2.747,0,4.706-0.503,5.879-1.508c1.171-1.005,1.759-2.914,1.759-5.729V45.021
		c0-3.015-0.537-5.242-1.608-6.683c-1.072-1.44-3.083-2.161-6.03-2.161v-2.11c2.144,0.201,4.221,0.301,6.231,0.301
		c1.942,0,3.802-0.116,5.578-0.352c1.774-0.234,3.4-0.586,4.875-1.055v11.859c1.741-4.556,4.17-7.721,7.286-9.498
		C443.15,33.549,446.417,32.66,449.834,32.66z"/>
	<path d="M482.696,12.459c1.005,0,1.859,0.402,2.563,1.206c0.703,0.804,1.055,1.944,1.055,3.417c0,2.211-0.135,4.271-0.401,6.181
		c-0.269,1.909-0.62,4.054-1.056,6.432c-0.437,2.379-0.922,5.412-1.457,9.095h-1.407c-0.47-3.483-0.938-6.415-1.407-8.793
		c-0.469-2.377-0.838-4.556-1.105-6.533c-0.269-1.976-0.401-4.07-0.401-6.281c0-1.473,0.352-2.613,1.055-3.417
		C480.836,12.962,481.691,12.527,482.696,12.459z"/>
	<path d="M513.046,32.66c2.679,0,4.957,0.437,6.834,1.307c1.875,0.872,3.249,1.675,4.12,2.412c2.211,1.809,3.551,0.603,4.021-3.618
		h2.312c-0.136,1.876-0.236,4.105-0.302,6.683c-0.067,2.58-0.101,6.047-0.101,10.402h-2.312c-0.402-2.478-1.09-4.89-2.061-7.236
		c-0.972-2.345-2.396-4.271-4.271-5.779c-1.876-1.508-4.321-2.261-7.336-2.261c-2.346,0-4.306,0.653-5.879,1.959
		c-1.575,1.307-2.362,3.233-2.362,5.779c0,2.01,0.604,3.736,1.81,5.176c1.205,1.441,2.779,2.781,4.723,4.02
		c1.942,1.241,4.054,2.597,6.332,4.07c2.545,1.608,4.856,3.25,6.935,4.924c2.076,1.676,3.734,3.518,4.975,5.527
		c1.239,2.011,1.859,4.39,1.859,7.136c0,3.083-0.804,5.663-2.412,7.738c-1.608,2.078-3.703,3.653-6.281,4.724
		c-2.58,1.071-5.411,1.608-8.492,1.608c-1.475,0-2.864-0.118-4.171-0.352c-1.307-0.236-2.563-0.588-3.769-1.056
		c-0.671-0.335-1.357-0.736-2.061-1.206c-0.703-0.468-1.392-0.971-2.061-1.508c-0.67-0.535-1.273-0.518-1.809,0.051
		c-0.537,0.57-0.939,1.692-1.206,3.366h-2.312c0.134-2.144,0.234-4.756,0.302-7.839c0.065-3.081,0.101-7.168,0.101-12.261h2.312
		c0.468,3.753,1.138,7.035,2.01,9.849c0.87,2.814,2.244,5.01,4.12,6.583c1.875,1.575,4.488,2.362,7.839,2.362
		c1.34,0,2.696-0.302,4.07-0.905c1.373-0.603,2.528-1.607,3.468-3.015c0.938-1.407,1.407-3.282,1.407-5.628
		c0-2.947-1.073-5.359-3.217-7.236c-2.145-1.875-4.858-3.852-8.14-5.93c-2.412-1.54-4.674-3.08-6.784-4.623
		c-2.11-1.541-3.819-3.282-5.125-5.226c-1.307-1.942-1.96-4.287-1.96-7.035c0-3.015,0.686-5.477,2.06-7.387
		c1.373-1.909,3.199-3.316,5.478-4.221C507.987,33.112,510.433,32.66,513.046,32.66z"/>
	<path d="M645.403,14.671v2.01c-2.278,0.067-4.004,0.319-5.176,0.754c-1.173,0.437-1.96,1.24-2.361,2.412
		c-0.402,1.173-0.604,2.999-0.604,5.477v49.848c0,2.412,0.201,4.222,0.604,5.428c0.401,1.206,1.188,2.01,2.361,2.411
		c1.172,0.402,2.897,0.671,5.176,0.805v2.01c-1.542-0.134-3.467-0.217-5.778-0.251c-2.312-0.033-4.641-0.051-6.985-0.051
		c-2.612,0-5.06,0.018-7.336,0.051c-2.279,0.034-4.121,0.117-5.528,0.251v-2.01c2.277-0.134,4.003-0.402,5.176-0.805
		c1.172-0.401,1.96-1.205,2.362-2.411s0.603-3.016,0.603-5.428V19.896l0.402,0.302l-24.622,66.129h-1.608l-25.326-65.225v53.064
		c0,2.412,0.217,4.306,0.653,5.679c0.435,1.374,1.307,2.346,2.613,2.914c1.307,0.57,3.266,0.922,5.879,1.056v2.01
		c-1.206-0.134-2.781-0.217-4.724-0.251c-1.943-0.033-3.786-0.051-5.527-0.051c-1.676,0-3.366,0.018-5.075,0.051
		c-1.708,0.034-3.133,0.117-4.271,0.251v-2.01c2.277-0.134,4.003-0.485,5.176-1.056c1.172-0.568,1.96-1.54,2.362-2.914
		c0.401-1.373,0.603-3.267,0.603-5.679V25.324c0-2.478-0.201-4.304-0.603-5.477c-0.402-1.172-1.19-1.976-2.362-2.412
		c-1.173-0.435-2.898-0.687-5.176-0.754v-2.01c1.139,0.067,2.563,0.135,4.271,0.201c1.709,0.068,3.399,0.101,5.075,0.101
		c1.473,0,2.998-0.033,4.573-0.101c1.573-0.066,2.896-0.133,3.97-0.201l22.813,60.099l-1.709,0.804l22.612-60.602
		c0.805,0,1.591,0,2.362,0c0.77,0,1.558,0,2.361,0c2.345,0,4.674-0.033,6.985-0.101C641.936,14.806,643.861,14.738,645.403,14.671z"
		/>
	<path d="M676.958,32.66c5.895,0,10.502,1.793,13.818,5.377c3.317,3.585,4.976,9.163,4.976,16.733h-35.477l-0.101-1.909h25.929
		c0.134-3.282-0.135-6.314-0.804-9.095c-0.671-2.78-1.726-5.008-3.166-6.684c-1.441-1.674-3.301-2.512-5.578-2.512
		c-3.082,0-5.813,1.542-8.19,4.623c-2.379,3.083-3.803,7.974-4.271,14.673l0.302,0.402c-0.135,1.005-0.235,2.111-0.302,3.316
		c-0.067,1.207-0.101,2.413-0.101,3.619c0,4.557,0.737,8.477,2.211,11.758c1.474,3.284,3.4,5.779,5.779,7.487
		c2.377,1.709,4.84,2.563,7.387,2.563c2.01,0,3.92-0.316,5.729-0.954c1.809-0.636,3.482-1.691,5.025-3.166
		c1.54-1.473,2.88-3.45,4.02-5.93l2.01,0.805c-0.738,2.211-1.943,4.355-3.618,6.432c-1.675,2.077-3.785,3.769-6.331,5.075
		c-2.547,1.307-5.494,1.96-8.844,1.96c-4.824,0-8.962-1.105-12.412-3.316c-3.451-2.211-6.098-5.276-7.939-9.196
		c-1.844-3.919-2.764-8.425-2.764-13.517c0-5.896,0.938-10.971,2.813-15.226c1.875-4.254,4.523-7.538,7.94-9.849
		S672.402,32.66,676.958,32.66z"/>
	<path d="M736.554,32.66c2.345,0,4.388,0.336,6.131,1.005c1.741,0.671,3.182,1.608,4.321,2.814c1.272,1.341,2.144,3.083,2.613,5.226
		c0.468,2.145,0.703,4.791,0.703,7.939v26.833c0,2.814,0.586,4.724,1.759,5.729c1.172,1.005,3.132,1.508,5.88,1.508v2.11
		c-1.141-0.066-2.882-0.15-5.227-0.251c-2.346-0.101-4.623-0.151-6.834-0.151s-4.371,0.051-6.482,0.151
		c-2.11,0.101-3.702,0.185-4.773,0.251v-2.11c2.412,0,4.12-0.503,5.126-1.508c1.005-1.005,1.507-2.914,1.507-5.729V47.434
		c0-2.076-0.135-3.985-0.401-5.729c-0.269-1.741-0.939-3.148-2.011-4.221c-1.072-1.071-2.813-1.608-5.226-1.608
		c-2.613,0-4.941,0.804-6.984,2.412c-2.045,1.608-3.653,3.803-4.824,6.583c-1.173,2.781-1.759,5.879-1.759,9.296v22.311
		c0,2.814,0.502,4.724,1.508,5.729c1.005,1.005,2.713,1.508,5.125,1.508v2.11c-1.072-0.066-2.663-0.15-4.773-0.251
		s-4.271-0.151-6.482-0.151s-4.489,0.051-6.834,0.151c-2.346,0.101-4.088,0.185-5.227,0.251v-2.11c2.747,0,4.707-0.503,5.88-1.508
		c1.171-1.005,1.759-2.914,1.759-5.729V45.021c0-3.015-0.537-5.242-1.608-6.683c-1.072-1.44-3.082-2.161-6.03-2.161v-2.11
		c2.144,0.201,4.222,0.301,6.231,0.301c1.942,0,3.802-0.116,5.578-0.352c1.774-0.234,3.399-0.586,4.874-1.055v11.859
		c1.741-4.354,4.12-7.47,7.136-9.347C730.223,33.599,733.338,32.66,736.554,32.66z M766.805,32.66c2.345,0,4.388,0.336,6.131,1.005
		c1.741,0.671,3.181,1.608,4.321,2.814c1.271,1.341,2.144,3.083,2.612,5.226c0.469,2.145,0.704,4.791,0.704,7.939v26.833
		c0,2.814,0.586,4.724,1.759,5.729c1.171,1.005,3.131,1.508,5.879,1.508v2.11c-1.14-0.066-2.881-0.15-5.226-0.251
		c-2.347-0.101-4.623-0.151-6.834-0.151s-4.372,0.051-6.482,0.151s-3.703,0.185-4.773,0.251v-2.11c2.411,0,4.12-0.503,5.125-1.508
		s1.508-2.914,1.508-5.729V47.434c0-2.076-0.136-3.985-0.402-5.729c-0.269-1.741-0.938-3.148-2.01-4.221
		c-1.072-1.071-2.814-1.608-5.227-1.608c-2.612,0-4.941,0.804-6.984,2.412c-2.045,1.608-3.652,3.786-4.824,6.533
		c-1.173,2.748-1.759,5.829-1.759,9.246l-0.301-9.347c1.809-4.623,4.254-7.789,7.336-9.497
		C760.439,33.515,763.589,32.66,766.805,32.66z"/>
	<path d="M817.254,32.66c4.287,0,8.141,0.939,11.558,2.814c3.417,1.876,6.146,4.824,8.19,8.844c2.043,4.02,3.065,9.246,3.065,15.678
		c0,6.432-1.022,11.642-3.065,15.627c-2.045,3.987-4.773,6.919-8.19,8.794s-7.271,2.814-11.558,2.814
		c-4.221,0-8.058-0.939-11.508-2.814c-3.451-1.875-6.197-4.807-8.24-8.794c-2.045-3.985-3.065-9.195-3.065-15.627
		c0-6.433,1.021-11.658,3.065-15.678c2.043-4.02,4.789-6.968,8.24-8.844C809.197,33.599,813.034,32.66,817.254,32.66z
		 M817.254,34.67c-3.819,0-6.952,1.977-9.396,5.929c-2.447,3.954-3.669,10.419-3.669,19.397c0,8.979,1.222,15.427,3.669,19.346
		c2.444,3.92,5.577,5.88,9.396,5.88s6.95-1.96,9.396-5.88c2.445-3.919,3.668-10.367,3.668-19.346c0-8.978-1.223-15.443-3.668-19.397
		C824.205,36.647,821.074,34.67,817.254,34.67z"/>
	<path d="M878.96,32.66c1.809,0,3.399,0.369,4.773,1.105c1.373,0.738,2.445,1.693,3.217,2.864c0.77,1.173,1.155,2.497,1.155,3.97
		c0,1.676-0.52,3.15-1.558,4.422c-1.04,1.274-2.43,1.91-4.171,1.91c-1.407,0-2.647-0.452-3.719-1.357
		c-1.072-0.904-1.607-2.193-1.607-3.869c0-1.272,0.352-2.362,1.055-3.266c0.704-0.904,1.49-1.624,2.362-2.161
		c-0.47-0.669-1.173-1.005-2.11-1.005c-2.078,0-3.987,0.62-5.729,1.859c-1.743,1.241-3.217,2.832-4.423,4.774
		c-1.205,1.944-2.145,4.004-2.813,6.181c-0.671,2.178-1.005,4.206-1.005,6.08v21.306c0,3.283,0.955,5.478,2.864,6.583
		s4.505,1.658,7.789,1.658v2.11c-1.543-0.066-3.719-0.15-6.533-0.251c-2.813-0.101-5.796-0.151-8.944-0.151
		c-2.278,0-4.54,0.051-6.783,0.151c-2.246,0.101-3.938,0.185-5.076,0.251v-2.11c2.747,0,4.707-0.503,5.88-1.508
		c1.171-1.005,1.759-2.914,1.759-5.729V45.021c0-3.015-0.537-5.242-1.608-6.683c-1.072-1.44-3.082-2.161-6.03-2.161v-2.11
		c2.144,0.201,4.222,0.301,6.231,0.301c1.942,0,3.802-0.116,5.578-0.352c1.774-0.234,3.399-0.586,4.874-1.055v12.563
		c0.736-1.943,1.792-3.902,3.166-5.879c1.372-1.976,3.03-3.634,4.975-4.975C874.471,33.331,876.615,32.66,878.96,32.66z"/>
	<path d="M939.16,34.067v2.01c-1.274,0.135-2.447,0.704-3.518,1.708c-1.073,1.005-2.078,2.781-3.016,5.327l-16.481,43.215h-1.709
		l-18.492-44.522c-1.273-2.613-2.529-4.204-3.769-4.774c-1.24-0.568-2.261-0.854-3.065-0.854v-2.11
		c1.474,0.201,3.016,0.352,4.623,0.452c1.608,0.101,3.35,0.151,5.227,0.151c2.076,0,4.271-0.066,6.582-0.201
		c2.312-0.133,4.473-0.267,6.482-0.402v2.11c-1.675,0-3.165,0.118-4.472,0.352c-1.307,0.236-2.128,0.939-2.463,2.111
		c-0.336,1.173,0.066,3.166,1.206,5.979l12.361,30.652l-0.603,0.201l11.457-29.949c0.87-2.211,1.222-3.97,1.056-5.276
		c-0.169-1.307-0.854-2.294-2.061-2.965c-1.206-0.669-3.016-1.071-5.427-1.206v-2.01c1.206,0.067,2.243,0.118,3.115,0.15
		c0.87,0.035,1.724,0.068,2.563,0.101c0.837,0.035,1.759,0.05,2.764,0.05c1.541,0,2.931-0.033,4.171-0.101
		C936.931,34.202,938.086,34.135,939.16,34.067z M916.145,86.328l-3.417,8.743c-0.671,1.674-1.357,3.081-2.061,4.221
		c-0.703,1.139-1.457,2.076-2.262,2.814c-1.072,1.005-2.346,1.691-3.818,2.06c-1.475,0.368-2.814,0.553-4.021,0.553
		c-1.273,0-2.429-0.235-3.467-0.703c-1.04-0.47-1.859-1.155-2.462-2.061c-0.604-0.904-0.905-1.994-0.905-3.266
		c0-1.608,0.468-2.899,1.407-3.869c0.938-0.973,2.244-1.458,3.92-1.458c1.406,0,2.612,0.402,3.617,1.206
		c1.006,0.805,1.508,1.976,1.508,3.518c0,1.139-0.269,2.076-0.804,2.814c-0.537,0.736-1.173,1.307-1.909,1.708
		c0.133,0.066,0.251,0.101,0.352,0.101s0.184,0,0.251,0c1.809,0,3.417-0.62,4.824-1.859c1.407-1.24,2.646-3.233,3.719-5.979
		l3.617-9.347L916.145,86.328z"/>
</g>
</svg>
